<svg width="800" height="600" xmlns="http://www.w3.org/2000/svg">
 <g>
  <title>Layer 1</title>
  <rect stroke="#000" id="svg_20" height="598" width="798.99999" y="4" x="1.00002" fill="#FFE7A2"/>
  <rect id="svg_36" height="610" width="481" y="-1" x="-1" stroke="#000" fill="#FFA9A2"/>
  <rect id="svg_50" height="239" width="167" y="238" x="302" stroke="#000" fill="#000000"/>
  <rect id="svg_51" height="222" width="150" y="248" x="312" stroke="#000" fill="#C97A86"/>
  <rect id="svg_55" height="121" width="27" y="300" x="312" stroke="#000" fill="#529D94"/>
  <ellipse ry="124.5" rx="96.5" id="svg_1" cy="351.5" cx="404.5" stroke="#000" fill="#FFDBD2"/>
  <rect id="svg_4" height="34" width="58" y="319" x="331" stroke="#000" fill="#000000"/>
  <rect id="svg_6" height="25" width="51" y="324" x="335" stroke="#000" fill="#FFDBD2"/>
  <rect id="svg_11" height="34" width="58" y="321" x="416" stroke="#000" fill="#000000"/>
  <rect id="svg_9" height="25" width="51" y="325" x="421" stroke="#000" fill="#FFDBD2"/>
  <rect id="svg_12" height="6" width="28" y="332" x="389" stroke="#000" fill="#000000"/>
  <rect stroke="#000" id="svg_13" height="123" width="330" y="475" x="241" fill="#33666C"/>
  <path stroke="#000" id="svg_15" d="m338,472l65,40l86,-37.79817" opacity="NaN" fill="#FFDBD2"/>
  <path id="svg_16" d="m326,463l76,64l9,-13" opacity="NaN" stroke="#000" fill="#33666C"/>
  <path id="svg_17" d="m407,512l15,15l65,-54" opacity="NaN" stroke="#000" fill="#33666C"/>
  <ellipse ry="5.5" rx="4.5" id="svg_18" cy="522.5" cx="410.5" stroke="#000" fill="#BBBBBB"/>
  <path id="svg_30" d="m618.27595,363.45366c-2.95875,8.11842 -10.07596,13.8546 -18.41394,13.8546c-8.34317,0 -15.46191,-5.73618 -18.4141,-13.8546l-45.08848,21.31546l12.68527,33.32718l13.93277,-6.58927l0,67.94661l74.25928,0l0,-67.70651l13.43252,6.35296l12.69016,-33.32715l-45.08348,-21.31927l0,0z" stroke="#000" fill="#666666"/>
  <path id="svg_31" d="m952.23482,382.42837c-0.862,0.4899 -2.93551,0.83605 -5.36468,0.83605c-2.43068,0 -4.50464,-0.34615 -5.36473,-0.83605l-13.13599,1.28628l3.6957,2.01112l4.05914,-0.39763l0,4.10022l21.63455,0l0,-4.08574l3.9134,0.38337l3.69713,-2.01112l-13.13453,-1.28651l0,0z" stroke="#000" fill="#FFE7A2"/>
  <path id="svg_34" d="m936.71233,433.9387c-1.37454,1.32974 -4.68096,2.26929 -8.55451,2.26929c-3.87596,0 -7.18309,-0.93955 -8.55458,-2.26929l-20.94662,3.49133l5.89316,5.45876l6.4727,-1.07928l0,11.12919l34.49841,0l0,-11.08986l6.2403,1.04057l5.89543,-5.45876l-20.94429,-3.49195l0,0z" opacity="NaN" stroke="#000" fill="#FFE7A2"/>
  <path id="svg_35" d="m655.77071,369.3937c-2.74907,7.13861 -9.36191,12.18249 -17.10902,12.18249c-7.75192,0 -14.36618,-5.04389 -17.10916,-12.18249l-41.89324,18.7429l11.78632,29.30494l12.94541,-5.79401l0,59.74617l68.99681,0l0,-59.53504l12.48061,5.58622l11.79086,-29.30491l-41.88859,-18.74626l0,0z" stroke="#000" fill="#805064"/>
  <rect id="svg_37" height="242" width="62" y="-4" x="455" stroke="#000" fill="#FFE7A2"/>
  <rect id="svg_43" height="231" width="20" y="361" x="701" stroke="#000" fill="#999999"/>
  <path id="svg_40" d="m701.21338,365.15334c-3.12183,7.90846 -10.63132,13.49629 -19.42888,13.49629c-8.80303,0 -16.31414,-5.58783 -19.42904,-13.49629l-47.57367,20.7642l13.38446,32.46528l14.70071,-6.41886l0,66.18938l78.35231,0l0,-65.95549l14.17289,6.18866l13.38962,-32.46525l-47.56839,-20.76792l0,0z" stroke="#000" fill="#306856"/>
  <path id="svg_39" d="m735.20585,374.35866c-2.72578,6.99864 -9.28257,11.94362 -16.96402,11.94362c-7.68623,0 -14.24443,-4.94499 -16.96416,-11.94362l-41.5382,18.37539l11.68643,28.73033l12.8357,-5.6804l0,58.57467l68.41208,0l0,-58.36768l12.37483,5.47669l11.69093,-28.7303l-41.53359,-18.37868l0,0z" stroke="#000" fill="#74556D"/>
  <rect transform="rotate(-59.9008 129.125 25.1642)" stroke="#000" id="svg_41" height="110.75327" width="7.48839" y="-30.2124" x="125.38111" fill="#999999"/>
  <rect id="svg_42" height="9" width="203" y="354" x="553" stroke="#000" fill="#999999"/>
  <line id="svg_44" y2="-7" x2="180" y1="49" x1="180" stroke="#000" fill="none"/>
  <path transform="rotate(-178.207 119.095 15.26)" id="svg_47" d="m57.59499,48.26l0,-66.00001l123.00001,66.00001l-123.00001,0z" stroke="#000" fill="#FFF093"/>
  <rect id="svg_48" height="104" width="15" y="1" x="238" stroke="#000" fill="#884D58"/>
  <rect id="svg_49" height="14" width="220" y="106" x="238" stroke="#000" fill="#884D58"/>
  <rect id="svg_52" height="3" width="84" y="532" x="1" stroke="#000" fill="#999999"/>
  <rect id="svg_53" height="21" width="19" y="522" x="83" stroke="#000" fill="#999999"/>
  <path id="svg_58" d="m319,403c0,0 32,74 65,69" opacity="NaN" stroke="#000" fill="#666666"/>
  <path id="svg_62" d="m430,476c30,-25 37,-12 70,-82" opacity="NaN" stroke="#000" fill="#666666"/>
  <path id="svg_63" d="m365,465c3,2 44,30 81,-4" opacity="NaN" stroke="#000" fill="#666666"/>
  <path id="svg_64" d="m379,466c-10,-1 1,-47 10,-48" opacity="NaN" stroke="#000" fill="#666666"/>
  <path stroke="#000" id="svg_67" d="m435.62917,468c13.62917,-1 -1.36292,-47 -13.62917,-48" opacity="NaN" fill="#666666"/>
  <path id="svg_70" d="m387,420c37,-6 37,-6 38,1" opacity="NaN" stroke="#000" fill="#666666"/>
 </g>

</svg>